<svg width="322" height="67" viewBox="0 0 322 67" fill="none" xmlns="http://www.w3.org/2000/svg">
<path d="M8.64062 59V31.2734H0.4375V19.5156H21.4922V47.2422H42.875V59H8.64062ZM40.6875 59L53.6758 19.5156H73.2812L86.4883 59H71.5586L69.0703 51.8906H57.3398L54.8516 59H40.6875ZM63.5195 28.2656L57.8594 43.9062H68.7422L63.5195 28.2656ZM117.031 31.2734H107.406C102.721 31.1276 102.029 32.4219 105.328 35.1562C111.234 40.3333 114.133 45.3646 114.023 50.25C113.914 55.1354 111.016 58.0521 105.328 59H84.3281V47.2422H92.6406C97.7995 47.388 98.4557 45.9479 94.6094 42.9219C88.2656 37.0885 85.5677 31.7292 86.5156 26.8438C87.4635 21.9583 90.4531 19.5156 95.4844 19.5156H117.031V31.2734ZM117.031 59V19.5156H150.883V31.2734H129.883V35.8125H143.445V42.7031H129.883V47.2422H154.219V59H117.031ZM154.219 59V19.5156H179.922C183.094 19.8073 185.701 20.6458 187.742 22.0312C189.784 23.4167 191.279 25.276 192.227 27.6094C192.956 31.1094 192.992 33.8073 192.336 35.7031C191.68 37.599 190.531 39.1849 188.891 40.4609C187.25 41.737 184.898 42.7396 181.836 43.4688L184.789 47.2422H196.602V59H181.016L168.492 45.957V59H154.219ZM168.492 29.3594V36.6328H178.445C178.974 36.6328 179.548 36.4414 180.168 36.0586C180.788 35.6576 181.116 34.6641 181.152 33.0781C181.061 31.5651 180.688 30.5716 180.031 30.0977C179.393 29.6055 178.855 29.3594 178.418 29.3594H168.492Z" fill="black"/>
<path d="M8.64062 59H5.64062V62H8.64062V59ZM8.64062 31.2734H11.6406V28.2734H8.64062V31.2734ZM0.4375 31.2734H-2.5625V34.2734H0.4375V31.2734ZM0.4375 19.5156V16.5156H-2.5625V19.5156H0.4375ZM21.4922 19.5156H24.4922V16.5156H21.4922V19.5156ZM21.4922 47.2422H18.4922V50.2422H21.4922V47.2422ZM42.875 47.2422H45.875V44.2422H42.875V47.2422ZM42.875 59V62H45.875V59H42.875ZM11.6406 59V31.2734H5.64062V59H11.6406ZM8.64062 28.2734H0.4375V34.2734H8.64062V28.2734ZM3.4375 31.2734V19.5156H-2.5625V31.2734H3.4375ZM0.4375 22.5156H21.4922V16.5156H0.4375V22.5156ZM18.4922 19.5156V47.2422H24.4922V19.5156H18.4922ZM21.4922 50.2422H42.875V44.2422H21.4922V50.2422ZM39.875 47.2422V59H45.875V47.2422H39.875ZM42.875 56H8.64062V62H42.875V56ZM40.6875 59L37.8377 58.0626L36.5425 62H40.6875V59ZM53.6758 19.5156V16.5156H51.5045L50.826 18.5782L53.6758 19.5156ZM73.2812 19.5156L76.1263 18.564L75.4412 16.5156H73.2812V19.5156ZM86.4883 59V62H90.6551L89.3333 58.0484L86.4883 59ZM71.5586 59L68.727 59.9911L69.4301 62H71.5586V59ZM69.0703 51.8906L71.9019 50.8996L71.1988 48.8906H69.0703V51.8906ZM57.3398 51.8906V48.8906H55.2114L54.5083 50.8996L57.3398 51.8906ZM54.8516 59V62H56.98L57.6831 59.9911L54.8516 59ZM63.5195 28.2656L66.3651 27.3154L63.6334 19.1348L60.6986 27.2448L63.5195 28.2656ZM57.8594 43.9062L55.0384 42.8854L53.5833 46.9062H57.8594V43.9062ZM68.7422 43.9062V46.9062H72.9068L71.5877 42.9561L68.7422 43.9062ZM43.5373 59.9374L56.5256 20.4531L50.826 18.5782L37.8377 58.0626L43.5373 59.9374ZM53.6758 22.5156H73.2812V16.5156H53.6758V22.5156ZM70.4362 20.4673L83.6432 59.9516L89.3333 58.0484L76.1263 18.564L70.4362 20.4673ZM86.4883 56H71.5586V62H86.4883V56ZM74.3902 58.0089L71.9019 50.8996L66.2387 52.8817L68.727 59.9911L74.3902 58.0089ZM69.0703 48.8906H57.3398V54.8906H69.0703V48.8906ZM54.5083 50.8996L52.02 58.0089L57.6831 59.9911L60.1714 52.8817L54.5083 50.8996ZM54.8516 56H40.6875V62H54.8516V56ZM60.6986 27.2448L55.0384 42.8854L60.6803 44.9271L66.3405 29.2865L60.6986 27.2448ZM57.8594 46.9062H68.7422V40.9062H57.8594V46.9062ZM71.5877 42.9561L66.3651 27.3154L60.674 29.2158L65.8966 44.8564L71.5877 42.9561ZM117.031 31.2734V34.2734H120.031V31.2734H117.031ZM107.406 31.2734L107.313 34.272L107.36 34.2734H107.406V31.2734ZM105.328 35.1562L107.306 32.9002L107.274 32.8729L107.242 32.8464L105.328 35.1562ZM105.328 59V62H105.576L105.821 61.9592L105.328 59ZM84.3281 59H81.3281V62H84.3281V59ZM84.3281 47.2422V44.2422H81.3281V47.2422H84.3281ZM92.6406 47.2422L92.7254 44.2434L92.683 44.2422H92.6406V47.2422ZM94.6094 42.9219L92.5788 45.1302L92.6637 45.2083L92.7544 45.2797L94.6094 42.9219ZM117.031 19.5156H120.031V16.5156H117.031V19.5156ZM117.031 28.2734H107.406V34.2734H117.031V28.2734ZM107.5 28.2749C106.231 28.2354 105.032 28.2831 104.015 28.5002C103.172 28.6802 101.564 29.1564 100.728 30.7191C99.7685 32.5119 100.562 34.199 101.083 35.0052C101.657 35.8912 102.508 36.7153 103.414 37.4661L107.242 32.8464C106.891 32.555 106.626 32.31 106.432 32.1104C106.233 31.9055 106.146 31.7848 106.121 31.7457C106.087 31.6942 106.194 31.8359 106.251 32.1431C106.317 32.5027 106.299 33.0263 106.018 33.5504C105.758 34.0367 105.409 34.2665 105.271 34.3427C105.14 34.4148 105.109 34.4019 105.268 34.3679C105.595 34.298 106.24 34.2386 107.313 34.272L107.5 28.2749ZM103.351 37.4123C108.99 42.3553 111.104 46.6065 111.024 50.1829L117.023 50.3171C117.161 44.1227 113.479 38.3114 107.306 32.9002L103.351 37.4123ZM111.024 50.1829C110.983 52.0109 110.447 53.1746 109.64 53.9869C108.78 54.8523 107.301 55.6298 104.835 56.0408L105.821 61.9592C109.043 61.4222 111.857 60.2675 113.896 58.2162C115.987 56.1119 116.954 53.3745 117.023 50.3171L111.024 50.1829ZM105.328 56H84.3281V62H105.328V56ZM87.3281 59V47.2422H81.3281V59H87.3281ZM84.3281 50.2422H92.6406V44.2422H84.3281V50.2422ZM92.5559 50.241C93.9409 50.2801 95.2353 50.2234 96.3173 49.9825C97.2053 49.7849 98.9408 49.2514 99.7319 47.5155C100.595 45.6212 99.6467 43.9282 99.0911 43.1503C98.4459 42.247 97.5038 41.3819 96.4643 40.5641L92.7544 45.2797C93.177 45.6122 93.5065 45.8985 93.7558 46.1394C94.0102 46.3853 94.1465 46.5507 94.2087 46.6378C94.2807 46.7386 94.195 46.6525 94.1304 46.4C94.0951 46.2618 94.0629 46.0604 94.0771 45.8121C94.0916 45.5573 94.1532 45.2882 94.272 45.0275C94.5144 44.4957 94.8794 44.2359 95.0287 44.1485C95.1648 44.0688 95.1955 44.0854 95.0138 44.1259C94.8467 44.163 94.5767 44.2035 94.1781 44.2283C93.7847 44.2528 93.3033 44.2597 92.7254 44.2434L92.5559 50.241ZM96.64 40.7136C90.4973 35.0651 88.8231 30.7011 89.4607 27.4152L83.5705 26.2723C82.3123 32.7573 86.034 39.112 92.5788 45.1302L96.64 40.7136ZM89.4607 27.4152C89.8404 25.4582 90.5559 24.3335 91.3669 23.6708C92.1819 23.0049 93.4483 22.5156 95.4844 22.5156V16.5156C92.4892 16.5156 89.7452 17.2477 87.5706 19.0245C85.3921 20.8045 84.1388 23.3438 83.5705 26.2723L89.4607 27.4152ZM95.4844 22.5156H117.031V16.5156H95.4844V22.5156ZM114.031 19.5156V31.2734H120.031V19.5156H114.031ZM117.031 59H114.031V62H117.031V59ZM117.031 19.5156V16.5156H114.031V19.5156H117.031ZM150.883 19.5156H153.883V16.5156H150.883V19.5156ZM150.883 31.2734V34.2734H153.883V31.2734H150.883ZM129.883 31.2734V28.2734H126.883V31.2734H129.883ZM129.883 35.8125H126.883V38.8125H129.883V35.8125ZM143.445 35.8125H146.445V32.8125H143.445V35.8125ZM143.445 42.7031V45.7031H146.445V42.7031H143.445ZM129.883 42.7031V39.7031H126.883V42.7031H129.883ZM129.883 47.2422H126.883V50.2422H129.883V47.2422ZM154.219 47.2422H157.219V44.2422H154.219V47.2422ZM154.219 59V62H157.219V59H154.219ZM120.031 59V19.5156H114.031V59H120.031ZM117.031 22.5156H150.883V16.5156H117.031V22.5156ZM147.883 19.5156V31.2734H153.883V19.5156H147.883ZM150.883 28.2734H129.883V34.2734H150.883V28.2734ZM126.883 31.2734V35.8125H132.883V31.2734H126.883ZM129.883 38.8125H143.445V32.8125H129.883V38.8125ZM140.445 35.8125V42.7031H146.445V35.8125H140.445ZM143.445 39.7031H129.883V45.7031H143.445V39.7031ZM126.883 42.7031V47.2422H132.883V42.7031H126.883ZM129.883 50.2422H154.219V44.2422H129.883V50.2422ZM151.219 47.2422V59H157.219V47.2422H151.219ZM154.219 56H117.031V62H154.219V56ZM154.219 59H151.219V62H154.219V59ZM154.219 19.5156V16.5156H151.219V19.5156H154.219ZM179.922 19.5156L180.197 16.5282L180.06 16.5156H179.922V19.5156ZM192.227 27.6094L195.163 26.9975L195.108 26.7318L195.006 26.4802L192.227 27.6094ZM181.836 43.4688L181.141 40.5503L176.59 41.6338L179.473 45.3177L181.836 43.4688ZM184.789 47.2422L182.427 49.0911L183.327 50.2422H184.789V47.2422ZM196.602 47.2422H199.602V44.2422H196.602V47.2422ZM196.602 59V62H199.602V59H196.602ZM181.016 59L178.852 61.0778L179.737 62H181.016V59ZM168.492 45.957L170.656 43.8792L165.492 38.501V45.957H168.492ZM168.492 59V62H171.492V59H168.492ZM168.492 29.3594V26.3594H165.492V29.3594H168.492ZM168.492 36.6328H165.492V39.6328H168.492V36.6328ZM180.168 36.0586L181.744 38.611L181.771 38.5944L181.798 38.5773L180.168 36.0586ZM181.152 33.0781L184.152 33.1471L184.154 33.0223L184.147 32.8977L181.152 33.0781ZM180.031 30.0977L178.199 32.473L178.236 32.5019L178.275 32.5297L180.031 30.0977ZM157.219 59V19.5156H151.219V59H157.219ZM154.219 22.5156H179.922V16.5156H154.219V22.5156ZM179.647 22.503C182.457 22.7614 184.54 23.4841 186.058 24.5137L189.427 19.5488C186.861 17.8075 183.73 16.8532 180.197 16.5282L179.647 22.503ZM186.058 24.5137C187.598 25.5589 188.718 26.9425 189.447 28.7385L195.006 26.4802C193.84 23.6096 191.97 21.2745 189.427 19.5488L186.058 24.5137ZM189.29 28.2212C189.983 31.5491 189.89 33.5988 189.501 34.7218L195.171 36.6845C196.095 34.0157 195.929 30.6697 195.163 26.9975L189.29 28.2212ZM189.501 34.7218C189.042 36.0485 188.249 37.1597 187.049 38.0929L190.732 42.829C192.814 41.2101 194.318 39.1494 195.171 36.6845L189.501 34.7218ZM187.049 38.0929C185.875 39.0055 183.981 39.8742 181.141 40.5503L182.531 46.3872C185.816 45.605 188.625 44.4684 190.732 42.829L187.049 38.0929ZM179.473 45.3177L182.427 49.0911L187.152 45.3933L184.198 41.6198L179.473 45.3177ZM184.789 50.2422H196.602V44.2422H184.789V50.2422ZM193.602 47.2422V59H199.602V47.2422H193.602ZM196.602 56H181.016V62H196.602V56ZM183.18 56.9222L170.656 43.8792L166.328 48.0348L178.852 61.0778L183.18 56.9222ZM165.492 45.957V59H171.492V45.957H165.492ZM168.492 56H154.219V62H168.492V56ZM165.492 29.3594V36.6328H171.492V29.3594H165.492ZM168.492 39.6328H178.445V33.6328H168.492V39.6328ZM178.445 39.6328C179.703 39.6328 180.823 39.1801 181.744 38.611L178.591 33.5062C178.44 33.5996 178.352 33.6339 178.324 33.6432C178.299 33.6515 178.344 33.6328 178.445 33.6328V39.6328ZM181.798 38.5773C182.879 37.8774 183.437 36.8343 183.728 35.9535C184.019 35.0698 184.13 34.1002 184.152 33.1471L178.153 33.0092C178.146 33.3125 178.126 33.5523 178.1 33.7366C178.073 33.9231 178.045 34.0284 178.03 34.0719C177.993 34.1846 178.076 33.8388 178.538 33.5399L181.798 38.5773ZM184.147 32.8977C184.045 31.2111 183.608 28.9799 181.788 27.6656L178.275 32.5297C177.997 32.3288 177.953 32.1404 177.996 32.2544C178.042 32.3784 178.123 32.6848 178.158 33.2585L184.147 32.8977ZM181.864 27.7223C181.087 27.1228 179.88 26.3594 178.418 26.3594V32.3594C178.246 32.3594 178.114 32.3353 178.031 32.3143C177.949 32.2936 177.904 32.2733 177.901 32.2719C177.897 32.2702 177.922 32.2813 177.976 32.3153C178.03 32.349 178.104 32.3997 178.199 32.473L181.864 27.7223ZM178.418 26.3594H168.492V32.3594H178.418V26.3594Z" fill="#FFE81F"/>
<path d="M245.035 19.5156V31.2734H232.512V59H219.66V31.2734H207.137V19.5156H245.035ZM261.359 28.2656L255.699 43.9062H266.582L261.359 28.2656ZM237.98 31.2734V19.5156H271.121L284.328 59H269.398L266.91 51.8906H255.18L252.691 59H238.527L247.633 31.2734H237.98ZM309.539 47.2422V39.2578H321.543V59H304.562C300.406 59 296.642 58.2435 293.27 56.7305C289.915 55.1992 287.272 52.9115 285.34 49.8672C283.408 46.8229 282.441 43.0951 282.441 38.6836C282.441 35.5846 283.016 32.8229 284.164 30.3984C285.331 27.9557 286.935 25.9323 288.977 24.3281C291.036 22.7057 293.115 21.4115 295.211 20.4453C297.307 19.4609 300.397 18.8594 304.48 18.6406C308.71 18.8594 311.936 19.3698 314.16 20.1719C316.384 20.974 318.626 22.4323 320.887 24.5469L313.121 33.1875C311.809 32.0938 310.642 31.3099 309.621 30.8359C308.6 30.362 306.923 30.0521 304.59 29.9062C302.329 30.1979 300.671 30.6901 299.613 31.3828C298.556 32.0755 297.626 32.9688 296.824 34.0625C296.022 35.1562 295.512 36.8333 295.293 39.0938C295.512 41.3542 296.022 42.9401 296.824 43.8516C297.626 44.763 298.629 45.5104 299.832 46.0938C301.035 46.6771 302.329 47.0417 303.715 47.1875C305.1 47.3333 307.042 47.3516 309.539 47.2422Z" fill="white"/>
</svg>
